<svg width="9" height="14" viewBox="0 0 9 14" fill="none" xmlns="http://www.w3.org/2000/svg">
<path d="M6.1875 0H2.8125C2.06685 0.00089317 1.352 0.297496 0.824749 0.824749C0.297496 1.352 0.00089317 2.06685 0 2.8125V10.6875C0.00089317 11.4331 0.297496 12.148 0.824749 12.6753C1.352 13.2025 2.06685 13.4991 2.8125 13.5H6.1875C6.93315 13.4991 7.648 13.2025 8.17525 12.6753C8.7025 12.148 8.99911 11.4331 9 10.6875V2.8125C8.99911 2.06685 8.7025 1.352 8.17525 0.824749C7.648 0.297496 6.93315 0.00089317 6.1875 0V0ZM2.8125 1.125H6.1875C6.63505 1.125 7.06428 1.30279 7.38074 1.61926C7.69721 1.93572 7.875 2.36495 7.875 2.8125V9H1.125V2.8125C1.125 2.36495 1.30279 1.93572 1.61926 1.61926C1.93572 1.30279 2.36495 1.125 2.8125 1.125V1.125ZM6.1875 12.375H2.8125C2.36495 12.375 1.93572 12.1972 1.61926 11.8807C1.30279 11.5643 1.125 11.1351 1.125 10.6875V10.125H7.875V10.6875C7.875 11.1351 7.69721 11.5643 7.38074 11.8807C7.06428 12.1972 6.63505 12.375 6.1875 12.375V12.375Z" fill="#B0B6C7"/>
<path d="M4.5 11.8122C4.81067 11.8122 5.06251 11.5603 5.06251 11.2497C5.06251 10.939 4.81067 10.6872 4.5 10.6872C4.18934 10.6872 3.9375 10.939 3.9375 11.2497C3.9375 11.5603 4.18934 11.8122 4.5 11.8122Z" fill="#B0B6C7"/>
</svg>
