<svg width="12" height="15" viewBox="0 0 12 15" fill="none" xmlns="http://www.w3.org/2000/svg">
<path d="M10.2 5.0544V4.2C10.2 3.08609 9.7575 2.0178 8.96985 1.23015C8.1822 0.442499 7.11391 0 6 0C4.88609 0 3.8178 0.442499 3.03015 1.23015C2.2425 2.0178 1.8 3.08609 1.8 4.2V5.0544C1.26562 5.28762 0.810776 5.67151 0.491099 6.15913C0.171423 6.64674 0.000767025 7.21694 0 7.8V11.4C0.000952715 12.1954 0.317329 12.9579 0.879732 13.5203C1.44213 14.0827 2.20464 14.399 3 14.4H9C9.79536 14.399 10.5579 14.0827 11.1203 13.5203C11.6827 12.9579 11.999 12.1954 12 11.4V7.8C11.9992 7.21694 11.8286 6.64674 11.5089 6.15913C11.1892 5.67151 10.7344 5.28762 10.2 5.0544V5.0544ZM3 4.2C3 3.40435 3.31607 2.64129 3.87868 2.07868C4.44129 1.51607 5.20435 1.2 6 1.2C6.79565 1.2 7.55871 1.51607 8.12132 2.07868C8.68393 2.64129 9 3.40435 9 4.2V4.8H3V4.2ZM10.8 11.4C10.8 11.8774 10.6104 12.3352 10.2728 12.6728C9.93523 13.0104 9.47739 13.2 9 13.2H3C2.52261 13.2 2.06477 13.0104 1.72721 12.6728C1.38964 12.3352 1.2 11.8774 1.2 11.4V7.8C1.2 7.32261 1.38964 6.86477 1.72721 6.52721C2.06477 6.18964 2.52261 6 3 6H9C9.47739 6 9.93523 6.18964 10.2728 6.52721C10.6104 6.86477 10.8 7.32261 10.8 7.8V11.4Z" fill="#B0B6C7"/>
<path d="M6.00003 8.39978C5.8409 8.39978 5.68828 8.46299 5.57576 8.57552C5.46324 8.68804 5.40002 8.84065 5.40002 8.99978V10.1998C5.40002 10.3589 5.46324 10.5115 5.57576 10.624C5.68828 10.7366 5.8409 10.7998 6.00003 10.7998C6.15916 10.7998 6.31177 10.7366 6.42429 10.624C6.53682 10.5115 6.60003 10.3589 6.60003 10.1998V8.99978C6.60003 8.84065 6.53682 8.68804 6.42429 8.57552C6.31177 8.46299 6.15916 8.39978 6.00003 8.39978Z" fill="#B0B6C7"/>
</svg>
