<svg width="12" height="12" viewBox="0 0 12 12" fill="none" xmlns="http://www.w3.org/2000/svg">
<path d="M12 1.0021V3.00536C12 3.13818 11.9472 3.26557 11.8533 3.35949C11.7594 3.45341 11.632 3.50617 11.4992 3.50617C11.3664 3.50617 11.239 3.45341 11.1451 3.35949C11.0511 3.26557 10.9984 3.13818 10.9984 3.00536V1.72177L8.34406 4.36207C8.24935 4.45306 8.12269 4.50321 7.99136 4.50171C7.86003 4.50022 7.73455 4.44719 7.64194 4.35406C7.54934 4.26093 7.49702 4.13515 7.49627 4.00381C7.49551 3.87248 7.54638 3.7461 7.63791 3.65191L10.3022 1.0021H8.99512C8.86229 1.0021 8.73491 0.949339 8.64099 0.855418C8.54707 0.761497 8.4943 0.634113 8.4943 0.501289C8.4943 0.368465 8.54707 0.241081 8.64099 0.14716C8.73491 0.0532392 8.86229 0.000474978 8.99512 0.000474978H10.9984C11.264 0.000474978 11.5188 0.106003 11.7066 0.293845C11.8945 0.481687 12 0.736455 12 1.0021ZM11.5468 8.3836C11.837 8.67463 12 9.06887 12 9.47989C12 9.8909 11.837 10.2851 11.5468 10.5762L11.09 11.102C6.98785 15.0274 -2.99287 5.04968 0.873413 0.935495L1.44885 0.434681C1.74037 0.152608 2.13113 -0.00350103 2.53676 5.95985e-05C2.94239 0.00362023 3.33035 0.166565 3.61687 0.453712C3.6319 0.469237 4.55991 1.6752 4.55991 1.6752C4.83519 1.96439 4.98847 2.34853 4.98791 2.74779C4.98735 3.14706 4.83299 3.53076 4.5569 3.81918L3.97646 4.54887C4.2974 5.32869 4.76928 6.03741 5.36497 6.63431C5.96066 7.2312 6.66843 7.7045 7.4476 8.02702L8.18129 7.44357C8.46969 7.16763 8.85329 7.01336 9.25243 7.0128C9.65158 7.01224 10.0356 7.16543 10.3248 7.44057C10.3248 7.44057 11.5312 8.36858 11.5468 8.3836ZM10.8581 9.11179C10.8581 9.11179 9.6597 8.18929 9.64417 8.17426C9.541 8.07196 9.40158 8.01456 9.25629 8.01456C9.111 8.01456 8.97158 8.07196 8.86841 8.17426C8.85489 8.18728 7.84475 8.99259 7.84475 8.99259C7.77667 9.04678 7.69566 9.08229 7.60969 9.09564C7.52371 9.10899 7.43575 9.09971 7.35445 9.06872C6.34441 8.69312 5.42701 8.10461 4.6645 7.34314C3.90199 6.58167 3.31224 5.66507 2.93526 4.65554C2.90229 4.57347 2.89163 4.48412 2.90439 4.3966C2.91714 4.30907 2.95285 4.22648 3.00788 4.15723C3.00788 4.15723 3.81269 3.14709 3.82621 3.13357C3.92851 3.03039 3.98591 2.89098 3.98591 2.74569C3.98591 2.60039 3.92851 2.46098 3.82621 2.35781C3.81119 2.34278 2.88869 1.14383 2.88869 1.14383C2.78403 1.04987 2.6474 0.999493 2.50679 1.00303C2.36619 1.00657 2.23226 1.06375 2.13246 1.16286L1.55702 1.66368C-1.26957 5.0602 7.38099 13.2315 10.3573 10.4189L10.8141 9.89306C10.9218 9.79424 10.9866 9.6573 10.9948 9.51138C11.0031 9.36546 10.954 9.22209 10.8581 9.11179V9.11179Z" fill="#B0B6C7"/>
</svg>
